<svg id="svg" version="1.1" xmlns="http://www.w3.org/2000/svg" xmlns:xlink="http://www.w3.org/1999/xlink" width="400" height="400.6932409012132" viewBox="0, 0, 400,400.6932409012132"><g id="svgg"><path id="path0" d="M0.000 200.200 L 0.000 400.400 200.000 400.400 L 400.000 400.400 400.000 200.200 L 400.000 0.000 200.000 0.000 L 0.000 0.000 0.000 200.200 M395.200 200.200 L 395.200 395.600 200.043 395.600 C 22.454 395.600,4.864 395.543,4.643 394.967 C 4.310 394.099,4.334 5.400,4.667 5.067 C 4.813 4.920,92.743 4.800,200.067 4.800 L 395.200 4.800 395.200 200.200 M82.000 127.991 L 82.000 148.782 89.500 148.891 L 97.000 149.000 97.102 199.775 C 97.182 240.132,97.100 250.616,96.702 250.869 C 96.426 251.044,93.005 251.191,89.100 251.194 L 82.000 251.200 82.000 272.000 L 82.000 292.800 131.800 292.800 L 181.600 292.800 181.600 272.009 L 181.600 251.217 173.900 251.109 L 166.200 251.000 166.096 231.024 C 166.039 220.037,166.147 210.893,166.335 210.705 C 166.526 210.514,168.170 212.191,170.036 214.481 C 171.883 216.746,173.781 219.050,174.253 219.600 C 175.531 221.086,181.221 228.029,182.600 229.784 C 183.260 230.624,183.987 231.511,184.216 231.756 C 184.444 232.000,185.879 233.730,187.404 235.600 C 194.122 243.837,205.005 257.120,206.085 258.400 C 206.734 259.170,207.746 260.415,208.333 261.166 C 208.920 261.918,210.390 263.718,211.600 265.166 C 214.451 268.580,219.789 275.091,222.121 278.000 C 223.352 279.535,226.221 283.021,226.401 283.200 C 226.938 283.734,232.366 290.360,233.200 291.500 L 234.150 292.800 276.075 292.800 L 318.000 292.800 318.000 272.009 L 318.000 251.218 310.500 251.109 L 303.000 251.000 303.000 200.000 L 303.000 149.000 310.500 148.891 L 318.000 148.782 318.000 127.991 L 318.000 107.200 268.200 107.200 L 218.400 107.200 218.400 128.000 L 218.400 148.800 226.000 148.800 L 233.600 148.800 233.600 170.200 C 233.600 181.970,233.453 191.600,233.274 191.600 C 233.019 191.600,228.542 186.358,225.075 182.000 C 223.883 180.501,220.979 176.980,220.786 176.800 C 220.669 176.690,219.859 175.705,218.986 174.612 C 218.114 173.518,217.099 172.258,216.730 171.812 C 215.439 170.246,203.927 156.175,201.995 153.800 C 198.947 150.053,188.015 136.691,187.269 135.800 C 186.900 135.360,185.879 134.102,184.999 133.005 C 184.120 131.908,181.185 128.308,178.477 125.005 C 175.770 121.702,173.339 118.730,173.076 118.400 C 171.824 116.830,168.977 113.378,168.786 113.200 C 168.669 113.090,167.859 112.105,166.986 111.012 C 166.114 109.918,165.053 108.613,164.628 108.112 L 163.856 107.200 122.928 107.200 L 82.000 107.200 82.000 127.991 M154.014 117.313 C 154.513 117.708,157.123 120.836,162.266 127.200 C 165.032 130.623,165.892 131.670,167.332 133.366 C 168.249 134.447,169.260 135.707,169.577 136.166 C 169.894 136.625,170.254 137.090,170.377 137.200 C 170.500 137.310,171.255 138.210,172.055 139.200 C 172.856 140.190,173.846 141.385,174.255 141.855 C 174.665 142.325,175.540 143.393,176.200 144.228 C 176.860 145.063,179.623 148.459,182.340 151.773 C 188.973 159.866,188.863 159.732,197.249 170.014 C 201.292 174.971,206.400 181.250,208.600 183.967 C 210.800 186.684,212.783 189.107,213.007 189.353 C 213.231 189.599,214.578 191.240,215.999 193.000 C 217.421 194.760,219.127 196.836,219.792 197.614 C 220.456 198.392,221.630 199.817,222.400 200.780 C 223.935 202.700,233.251 214.118,234.329 215.400 C 234.699 215.840,235.719 217.100,236.596 218.200 C 237.473 219.300,239.152 221.370,240.327 222.800 C 241.501 224.230,242.710 225.708,243.013 226.084 C 243.316 226.459,244.382 227.771,245.382 228.999 L 247.200 231.231 247.200 185.016 L 247.200 138.800 240.080 138.800 C 235.076 138.800,232.817 138.657,232.480 138.320 C 231.550 137.390,231.823 117.723,232.774 117.214 C 233.705 116.716,303.124 116.637,303.907 117.134 C 304.299 117.383,304.390 119.836,304.307 128.028 L 304.200 138.600 296.700 138.709 L 289.200 138.818 289.200 200.000 L 289.200 261.182 296.700 261.291 L 304.200 261.400 304.307 272.103 L 304.413 282.805 274.129 282.703 L 243.846 282.600 238.913 276.600 C 236.200 273.300,233.760 270.323,233.490 269.985 C 231.621 267.638,227.784 262.965,227.591 262.800 C 227.463 262.690,226.828 261.880,226.181 261.000 C 225.534 260.120,224.892 259.310,224.756 259.200 C 224.619 259.090,221.857 255.760,218.618 251.800 C 215.379 247.840,212.430 244.237,212.065 243.794 C 206.157 236.631,194.523 222.408,193.400 220.977 C 192.239 219.496,188.422 214.857,186.661 212.787 C 186.188 212.230,184.630 210.340,183.200 208.587 C 181.770 206.834,180.296 205.040,179.924 204.600 C 179.552 204.160,175.520 199.210,170.964 193.600 C 166.409 187.990,162.213 182.841,161.641 182.157 C 161.068 181.473,160.256 180.483,159.836 179.957 C 159.415 179.431,158.605 178.448,158.036 177.773 C 156.467 175.915,153.861 172.748,153.313 172.034 C 152.929 171.535,152.823 180.921,152.813 216.291 L 152.800 261.182 160.300 261.291 L 167.800 261.400 167.907 272.100 L 168.013 282.800 131.807 282.800 L 95.600 282.800 95.600 272.009 L 95.600 261.218 103.100 261.109 L 110.600 261.000 110.701 199.909 L 110.803 138.818 103.301 138.709 L 95.800 138.600 95.693 128.207 C 95.634 122.490,95.674 117.585,95.781 117.307 C 96.059 116.581,153.100 116.587,154.014 117.313 " stroke="none" fill="#fafafb" fill-rule="evenodd"></path><path id="path1" d="M5.200 199.800 L 5.200 394.400 200.000 394.400 L 394.800 394.400 394.800 199.800 L 394.800 5.200 200.000 5.200 L 5.200 5.200 5.200 199.800 M165.456 107.865 C 166.085 108.670,167.230 110.074,168.000 110.984 C 170.395 113.815,174.307 118.598,176.200 121.012 C 176.860 121.853,177.583 122.735,177.807 122.971 C 178.031 123.207,179.381 124.840,180.807 126.600 C 182.233 128.360,183.500 129.890,183.621 130.000 C 183.743 130.110,184.373 130.909,185.021 131.776 C 185.670 132.643,186.560 133.733,187.000 134.198 C 187.872 135.119,187.926 135.185,192.598 141.012 C 194.357 143.205,196.291 145.540,196.896 146.200 C 197.501 146.860,197.997 147.516,197.998 147.658 C 197.999 147.799,198.495 148.461,199.100 149.127 C 200.140 150.272,201.221 151.563,203.850 154.800 C 204.475 155.570,205.083 156.290,205.200 156.400 C 205.317 156.510,206.309 157.740,207.406 159.133 C 208.503 160.526,209.850 162.173,210.400 162.793 C 210.950 163.414,211.760 164.420,212.200 165.029 C 212.640 165.638,213.670 166.871,214.489 167.768 C 215.308 168.666,215.983 169.514,215.989 169.653 C 215.995 169.792,216.808 170.782,217.796 171.853 C 218.783 172.924,219.593 173.908,219.596 174.041 C 219.598 174.173,220.095 174.834,220.700 175.510 C 222.431 177.443,223.841 179.110,225.068 180.674 C 226.431 182.413,228.354 184.779,230.336 187.155 C 231.141 188.120,232.019 189.290,232.286 189.755 C 232.672 190.426,232.775 186.341,232.786 169.900 L 232.800 149.200 225.196 149.200 L 217.593 149.200 217.696 127.900 L 217.800 106.600 268.400 106.600 L 319.000 106.600 319.000 127.800 L 319.000 149.000 311.500 149.109 L 304.000 149.218 304.000 199.809 L 304.000 250.400 310.967 250.400 C 314.799 250.400,318.219 250.509,318.567 250.643 C 319.398 250.962,319.547 292.693,318.720 293.520 C 318.353 293.887,308.399 294.000,276.354 294.000 L 234.468 294.000 232.134 291.300 C 230.850 289.815,229.700 288.510,229.577 288.400 C 229.454 288.290,229.074 287.791,228.733 287.291 C 228.392 286.792,227.457 285.675,226.656 284.809 C 225.855 283.943,225.200 283.113,225.200 282.964 C 225.200 282.816,224.884 282.403,224.499 282.047 C 224.113 281.691,222.359 279.600,220.601 277.400 C 218.843 275.200,217.223 273.205,217.002 272.966 C 216.781 272.727,216.240 272.040,215.800 271.439 C 215.360 270.838,214.460 269.761,213.800 269.045 C 213.140 268.329,212.256 267.306,211.836 266.772 C 211.415 266.237,210.605 265.246,210.036 264.569 C 209.466 263.893,208.460 262.639,207.800 261.784 C 207.140 260.928,206.134 259.682,205.564 259.014 C 204.995 258.346,204.185 257.371,203.764 256.848 C 202.821 255.672,200.209 252.545,199.047 251.200 C 198.572 250.650,197.649 249.480,196.996 248.600 C 196.343 247.720,195.522 246.730,195.172 246.400 C 194.822 246.070,194.370 245.500,194.168 245.134 C 193.966 244.768,193.035 243.654,192.100 242.658 C 191.165 241.662,190.400 240.734,190.400 240.595 C 190.400 240.456,190.175 240.115,189.900 239.837 C 189.625 239.559,188.770 238.553,188.000 237.602 C 187.230 236.651,186.019 235.226,185.309 234.436 C 184.599 233.646,184.014 232.884,184.009 232.742 C 184.004 232.601,183.505 231.953,182.900 231.304 C 182.295 230.655,181.199 229.385,180.464 228.481 C 179.729 227.578,178.829 226.490,178.464 226.064 C 178.099 225.639,177.260 224.601,176.600 223.759 C 175.439 222.278,173.213 219.609,172.798 219.200 C 172.687 219.090,172.061 218.280,171.408 217.400 C 170.754 216.520,169.844 215.420,169.384 214.956 C 168.924 214.492,168.161 213.592,167.687 212.956 L 166.825 211.800 166.813 231.100 L 166.800 250.400 174.557 250.400 C 181.262 250.400,182.347 250.486,182.557 251.033 C 182.996 252.176,182.833 292.391,182.386 293.226 C 181.980 293.985,180.992 294.000,131.594 294.000 L 81.215 294.000 80.997 293.100 C 80.877 292.605,80.828 282.840,80.889 271.400 L 81.000 250.600 88.500 250.491 L 96.000 250.382 96.000 199.791 L 96.000 149.200 88.400 149.200 L 80.800 149.200 80.800 128.067 C 80.800 116.443,80.920 106.813,81.067 106.667 C 81.213 106.520,100.003 106.400,122.822 106.400 L 164.311 106.400 165.456 107.865 M96.000 127.791 L 96.000 137.582 103.500 137.691 L 111.000 137.800 111.101 199.900 L 111.203 262.000 103.601 262.000 L 96.000 262.000 96.000 272.200 L 96.000 282.400 131.800 282.400 L 167.600 282.400 167.600 272.208 L 167.600 262.017 159.700 261.908 L 151.800 261.800 151.698 216.100 C 151.588 166.386,151.495 168.569,153.611 171.106 C 153.935 171.495,155.008 172.800,155.995 174.006 C 156.981 175.213,157.891 176.290,158.016 176.400 C 158.140 176.510,158.773 177.320,159.421 178.200 C 160.070 179.080,160.799 179.980,161.041 180.200 C 161.284 180.420,161.755 181.010,162.087 181.512 C 162.420 182.013,163.436 183.217,164.346 184.188 C 165.256 185.159,166.000 186.129,166.000 186.343 C 166.000 186.558,166.138 186.793,166.308 186.867 C 166.477 186.940,167.422 187.985,168.408 189.189 C 169.393 190.393,170.694 191.923,171.298 192.589 C 171.902 193.255,172.397 193.927,172.398 194.082 C 172.399 194.237,172.810 194.777,173.312 195.282 C 173.813 195.787,174.508 196.609,174.856 197.109 C 175.203 197.608,176.143 198.725,176.944 199.591 C 177.745 200.457,178.400 201.287,178.400 201.436 C 178.400 201.584,178.717 201.997,179.105 202.353 C 179.492 202.709,181.026 204.530,182.513 206.400 C 186.678 211.637,187.268 212.360,189.200 214.595 C 191.276 216.998,191.773 217.612,193.407 219.794 C 194.063 220.671,194.963 221.751,195.408 222.194 C 195.852 222.637,196.749 223.720,197.401 224.600 C 198.875 226.589,199.393 227.224,201.400 229.499 C 202.280 230.497,203.265 231.693,203.588 232.156 C 203.912 232.620,204.587 233.413,205.088 233.918 C 205.590 234.423,206.000 234.972,206.000 235.138 C 206.000 235.303,206.675 236.158,207.500 237.038 C 208.325 237.917,209.479 239.258,210.065 240.018 C 210.651 240.778,211.461 241.793,211.865 242.274 C 212.269 242.755,213.497 244.285,214.592 245.674 C 215.688 247.063,216.860 248.470,217.197 248.800 C 217.533 249.130,218.340 250.114,218.990 250.986 C 219.640 251.858,220.448 252.869,220.786 253.232 C 221.770 254.289,224.548 257.659,225.184 258.567 C 225.505 259.025,225.955 259.595,226.184 259.834 C 226.413 260.073,227.201 261.009,227.936 261.915 C 228.671 262.820,229.583 263.919,229.961 264.355 C 230.340 264.792,230.999 265.628,231.425 266.214 C 231.851 266.800,232.650 267.779,233.200 268.390 C 234.849 270.223,235.751 271.316,237.004 273.000 C 237.659 273.880,238.292 274.690,238.411 274.800 C 238.818 275.178,243.000 280.244,243.795 281.322 L 244.590 282.400 274.095 282.400 L 303.600 282.400 303.600 272.200 L 303.600 262.000 296.047 262.000 C 288.552 262.000,288.491 261.993,288.252 261.100 C 287.808 259.442,287.966 139.210,288.414 138.374 C 288.801 137.652,289.321 137.600,296.214 137.600 L 303.600 137.600 303.600 127.800 L 303.600 118.000 268.400 118.000 L 233.200 118.000 233.200 127.800 L 233.200 137.600 240.353 137.600 C 247.434 137.600,247.509 137.609,247.748 138.500 C 248.170 140.073,248.023 230.945,247.598 231.600 C 247.167 232.264,245.717 230.955,243.386 227.800 C 242.736 226.920,242.113 226.110,242.002 226.000 C 241.587 225.591,239.361 222.922,238.200 221.441 C 237.540 220.599,236.701 219.561,236.336 219.136 C 235.971 218.710,235.071 217.621,234.336 216.717 C 233.601 215.813,232.419 214.426,231.709 213.636 C 230.999 212.846,230.414 212.073,230.409 211.918 C 230.404 211.763,229.990 211.223,229.488 210.718 C 228.987 210.213,228.292 209.391,227.944 208.891 C 227.597 208.392,226.657 207.275,225.856 206.409 C 225.055 205.543,224.400 204.662,224.400 204.451 C 224.400 204.240,224.255 204.007,224.079 203.933 C 223.902 203.860,222.370 202.090,220.675 200.000 C 218.980 197.910,217.259 195.827,216.852 195.370 C 216.444 194.914,215.782 194.039,215.380 193.426 C 214.979 192.813,214.189 191.817,213.625 191.212 C 211.938 189.403,210.636 187.858,209.386 186.183 C 208.736 185.313,208.114 184.510,208.002 184.400 C 207.808 184.208,204.847 180.607,203.601 179.048 C 202.825 178.077,200.159 174.887,199.047 173.600 C 198.572 173.050,197.647 171.881,196.992 171.003 C 196.336 170.124,195.440 169.017,195.000 168.543 C 194.560 168.069,193.810 167.168,193.334 166.540 C 192.858 165.913,192.138 165.015,191.734 164.545 C 191.330 164.075,190.521 163.085,189.935 162.345 C 189.349 161.605,188.478 160.550,188.000 160.000 C 187.522 159.450,186.651 158.395,186.065 157.655 C 185.479 156.915,184.686 155.925,184.302 155.455 C 183.918 154.985,183.166 154.060,182.630 153.400 C 182.095 152.740,180.969 151.374,180.128 150.365 C 179.288 149.355,178.060 147.838,177.400 146.994 C 176.740 146.149,176.020 145.265,175.800 145.029 C 175.054 144.229,173.006 141.746,171.800 140.183 C 170.374 138.333,166.351 133.418,165.092 131.987 C 164.601 131.429,163.663 130.259,163.007 129.387 C 161.497 127.380,160.579 126.270,158.700 124.179 C 157.875 123.261,157.200 122.399,157.200 122.262 C 157.200 122.125,156.358 121.110,155.329 120.007 L 153.458 118.000 124.729 118.000 L 96.000 118.000 96.000 127.791 " stroke="none" fill="#043464" fill-rule="evenodd"></path><path id="path2" d="M4.499 199.667 C 4.445 306.734,4.509 394.619,4.643 394.967 C 4.905 395.650,395.200 395.982,395.200 395.300 C 395.200 395.135,307.405 395.000,200.100 395.000 L 5.000 395.000 4.799 200.000 L 4.599 5.000 4.499 199.667 M81.696 127.900 L 81.793 149.000 81.900 128.100 L 82.007 107.200 122.981 107.200 L 163.955 107.200 164.577 108.089 C 164.920 108.578,165.200 108.786,165.200 108.551 C 165.200 106.751,166.401 106.800,122.669 106.800 L 81.600 106.800 81.696 127.900 M268.096 107.099 L 317.993 107.203 318.102 128.102 L 318.211 149.000 318.205 128.000 L 318.200 107.000 268.200 106.998 L 218.200 106.995 268.096 107.099 M166.800 110.800 C 167.497 111.680,168.157 112.400,168.267 112.400 C 168.377 112.400,167.897 111.680,167.200 110.800 C 166.503 109.920,165.843 109.200,165.733 109.200 C 165.623 109.200,166.103 109.920,166.800 110.800 M95.862 117.100 C 95.693 117.372,116.333 117.369,143.400 117.092 C 149.120 117.034,140.806 116.944,124.924 116.893 C 109.042 116.842,95.964 116.935,95.862 117.100 M250.700 117.100 C 260.435 117.160,276.365 117.160,286.100 117.100 C 295.835 117.040,287.870 116.991,268.400 116.991 C 248.930 116.991,240.965 117.040,250.700 117.100 M154.400 117.813 C 154.400 118.143,159.243 124.000,159.516 124.000 C 159.630 124.000,159.455 123.685,159.126 123.300 C 158.798 122.915,157.600 121.466,156.464 120.079 C 155.329 118.693,154.400 117.673,154.400 117.813 M232.174 127.800 C 232.175 133.520,232.231 135.804,232.299 132.876 C 232.368 129.948,232.367 125.268,232.299 122.476 C 232.230 119.684,232.174 122.080,232.174 127.800 M185.071 133.183 C 185.912 134.274,186.746 135.174,186.924 135.183 C 187.102 135.192,186.489 134.300,185.561 133.200 C 183.392 130.627,183.092 130.617,185.071 133.183 M168.383 135.100 C 169.126 136.035,169.806 136.800,169.894 136.800 C 170.177 136.800,168.463 134.549,167.735 133.964 C 167.348 133.654,167.640 134.165,168.383 135.100 M188.400 137.200 C 189.097 138.080,189.757 138.800,189.867 138.800 C 189.977 138.800,189.497 138.080,188.800 137.200 C 188.103 136.320,187.443 135.600,187.333 135.600 C 187.223 135.600,187.703 136.320,188.400 137.200 M304.000 137.925 C 304.000 138.248,301.802 138.414,296.500 138.491 L 289.000 138.600 288.998 199.700 L 288.996 260.800 289.099 199.800 L 289.203 138.800 296.578 138.800 C 303.431 138.800,305.096 138.562,304.240 137.707 C 304.108 137.575,304.000 137.673,304.000 137.925 M99.721 138.698 C 101.877 138.771,105.297 138.770,107.321 138.698 C 109.344 138.625,107.580 138.566,103.400 138.567 C 99.220 138.567,97.564 138.626,99.721 138.698 M239.998 138.695 L 247.197 138.818 247.301 184.909 L 247.405 231.000 247.403 184.800 L 247.400 138.600 240.100 138.586 L 232.799 138.572 239.998 138.695 M96.302 149.094 C 96.700 149.376,96.782 159.844,96.702 200.025 L 96.600 250.600 89.200 250.800 L 81.800 251.000 81.696 272.102 L 81.593 293.203 131.696 293.102 L 181.800 293.000 181.800 272.000 L 181.800 251.000 174.100 250.891 L 166.400 250.783 166.400 230.729 L 166.400 210.676 167.300 211.438 L 168.200 212.200 167.429 211.291 C 166.063 209.678,165.991 210.744,166.096 231.024 L 166.200 251.000 173.900 251.109 L 181.600 251.217 181.600 272.009 L 181.600 292.800 131.800 292.800 L 82.000 292.800 82.000 272.000 L 82.000 251.200 89.100 251.194 C 93.005 251.191,96.426 251.044,96.702 250.869 C 97.525 250.347,97.226 149.128,96.400 148.903 C 95.954 148.781,95.929 148.830,96.302 149.094 M302.985 149.300 C 302.880 149.575,302.841 172.570,302.897 200.400 L 303.000 251.000 310.500 251.109 L 318.000 251.218 318.000 272.007 L 318.000 292.796 276.200 292.901 L 234.400 293.006 276.300 293.003 L 318.200 293.000 318.200 272.000 L 318.200 251.000 310.700 250.891 L 303.200 250.782 303.200 200.025 C 303.200 159.793,303.304 149.225,303.700 149.065 C 304.092 148.907,304.089 148.856,303.687 148.832 C 303.406 148.814,303.089 149.025,302.985 149.300 M200.800 152.400 C 201.497 153.280,202.157 154.000,202.267 154.000 C 202.377 154.000,201.897 153.280,201.200 152.400 C 200.503 151.520,199.843 150.800,199.733 150.800 C 199.623 150.800,200.103 151.520,200.800 152.400 M186.400 157.200 C 187.097 158.080,187.757 158.800,187.867 158.800 C 187.977 158.800,187.497 158.080,186.800 157.200 C 186.103 156.320,185.443 155.600,185.333 155.600 C 185.223 155.600,185.703 156.320,186.400 157.200 M188.408 159.433 C 188.413 159.635,189.241 160.700,190.249 161.800 L 192.081 163.800 190.360 161.600 C 189.413 160.390,188.585 159.325,188.519 159.233 C 188.454 159.142,188.404 159.232,188.408 159.433 M152.498 216.300 L 152.600 261.400 160.093 261.509 L 167.587 261.618 167.703 272.209 L 167.820 282.800 167.810 272.100 L 167.800 261.400 160.300 261.291 L 152.800 261.182 152.800 216.306 L 152.800 171.430 154.029 172.815 L 155.258 174.200 154.181 172.700 C 153.589 171.875,152.946 171.200,152.751 171.200 C 152.547 171.200,152.440 190.307,152.498 216.300 M200.800 174.800 C 201.721 175.900,202.564 176.800,202.674 176.800 C 202.784 176.800,202.121 175.900,201.200 174.800 C 200.279 173.700,199.436 172.800,199.326 172.800 C 199.216 172.800,199.879 173.700,200.800 174.800 M218.224 173.582 C 219.191 174.989,220.799 176.838,220.788 176.531 C 220.781 176.349,220.106 175.472,219.288 174.582 C 218.470 173.693,217.991 173.243,218.224 173.582 M158.229 178.038 C 158.873 178.829,159.481 179.408,159.579 179.325 C 159.678 179.242,159.151 178.595,158.409 177.887 L 157.058 176.600 158.229 178.038 M222.341 178.700 C 223.071 179.635,223.754 180.400,223.861 180.400 C 224.173 180.400,222.503 178.181,221.726 177.564 C 221.335 177.254,221.612 177.765,222.341 178.700 M214.734 191.800 C 215.398 192.680,216.511 194.030,217.207 194.800 L 218.472 196.200 217.266 194.600 C 216.602 193.720,215.489 192.370,214.793 191.600 L 213.528 190.200 214.734 191.800 M173.220 196.400 C 175.018 198.600,176.588 200.400,176.707 200.400 C 176.826 200.400,176.654 200.085,176.325 199.700 C 175.995 199.315,174.511 197.515,173.027 195.700 C 171.543 193.885,170.243 192.400,170.139 192.400 C 170.034 192.400,171.421 194.200,173.220 196.400 M219.974 198.300 C 220.937 199.455,221.802 200.400,221.896 200.400 C 222.168 200.400,219.704 197.382,218.926 196.762 C 218.539 196.453,219.010 197.145,219.974 198.300 M229.240 209.600 C 230.187 210.810,231.015 211.875,231.081 211.967 C 231.146 212.058,231.196 211.968,231.192 211.767 C 231.187 211.565,230.359 210.500,229.351 209.400 L 227.519 207.400 229.240 209.600 M234.812 216.269 C 234.819 216.451,235.494 217.328,236.312 218.218 C 237.875 219.917,237.689 219.513,235.876 217.269 C 235.284 216.537,234.805 216.087,234.812 216.269 M177.644 224.200 C 180.099 227.170,182.190 229.600,182.292 229.600 C 182.394 229.600,181.965 228.976,181.339 228.213 C 180.712 227.450,178.760 225.030,177.000 222.835 C 175.240 220.641,173.661 218.835,173.490 218.822 C 173.320 218.810,175.189 221.230,177.644 224.200 M194.754 222.736 C 195.199 223.360,195.879 224.125,196.265 224.436 C 196.652 224.746,196.360 224.235,195.617 223.300 C 194.091 221.380,193.525 221.010,194.754 222.736 M197.600 226.200 C 198.117 226.750,198.606 227.200,198.688 227.200 C 199.021 227.200,197.372 225.224,197.030 225.213 C 196.827 225.206,197.083 225.650,197.600 226.200 M184.415 232.286 C 184.424 232.459,185.189 233.416,186.115 234.414 C 187.948 236.387,187.719 235.899,185.680 233.486 C 184.976 232.653,184.407 232.113,184.415 232.286 M206.822 237.396 C 208.028 239.057,211.600 243.199,211.600 242.936 C 211.600 242.667,208.048 238.374,206.854 237.200 C 206.308 236.663,206.304 236.683,206.822 237.396 M206.800 259.800 C 207.317 260.350,207.806 260.800,207.888 260.800 C 208.221 260.800,206.572 258.824,206.230 258.813 C 206.027 258.806,206.283 259.250,206.800 259.800 M103.100 261.099 C 98.975 261.164,95.600 261.349,95.600 261.509 C 95.599 261.943,110.134 261.626,110.578 261.182 C 110.788 260.972,110.879 260.841,110.780 260.891 C 110.681 260.940,107.225 261.034,103.100 261.099 M226.681 261.787 C 227.077 262.331,227.566 262.781,227.770 262.787 C 227.973 262.794,227.717 262.350,227.200 261.800 C 226.001 260.523,225.757 260.518,226.681 261.787 M291.600 261.474 C 297.963 261.762,304.310 261.775,304.139 261.500 C 304.037 261.335,300.588 261.235,296.476 261.278 C 292.364 261.321,290.170 261.410,291.600 261.474 M214.400 269.000 C 214.917 269.550,215.406 270.000,215.488 270.000 C 215.821 270.000,214.172 268.024,213.830 268.013 C 213.627 268.006,213.883 268.450,214.400 269.000 M234.800 271.600 C 235.497 272.480,236.157 273.200,236.267 273.200 C 236.377 273.200,235.897 272.480,235.200 271.600 C 234.503 270.720,233.843 270.000,233.733 270.000 C 233.623 270.000,234.103 270.720,234.800 271.600 M242.000 280.525 C 242.000 280.594,242.585 281.179,243.300 281.825 L 244.600 283.000 243.425 281.700 C 242.330 280.488,242.000 280.216,242.000 280.525 M230.820 288.900 C 232.188 290.605,233.389 292.000,233.487 292.000 C 233.725 292.000,231.647 289.405,229.804 287.400 C 228.995 286.520,229.452 287.195,230.820 288.900 " stroke="none" fill="#849cb4" fill-rule="evenodd"></path><path id="path3" d="M4.985 5.300 C 4.881 5.575,4.842 93.370,4.898 200.400 L 5.001 395.000 5.100 200.100 L 5.200 5.200 200.000 5.200 L 394.799 5.200 394.900 200.000 L 395.001 394.800 395.001 199.900 L 395.000 5.000 200.088 4.900 C 44.367 4.819,5.137 4.900,4.985 5.300 M102.300 106.700 C 113.575 106.759,132.025 106.759,143.300 106.700 C 154.575 106.641,145.350 106.593,122.800 106.593 C 100.250 106.593,91.025 106.641,102.300 106.700 M218.262 106.700 C 218.094 106.971,252.672 106.970,300.200 106.695 C 310.100 106.638,295.756 106.549,268.324 106.496 C 240.892 106.443,218.364 106.535,218.262 106.700 M318.400 128.280 C 318.290 139.764,318.337 149.024,318.504 148.857 C 318.671 148.689,318.761 139.293,318.704 127.976 L 318.600 107.400 318.400 128.280 M106.200 117.492 C 133.267 117.769,153.907 117.772,153.738 117.500 C 153.636 117.335,140.558 117.242,124.676 117.293 C 108.794 117.344,100.480 117.434,106.200 117.492 M245.600 117.494 C 278.546 117.769,303.906 117.772,303.738 117.500 C 303.636 117.335,287.678 117.242,268.276 117.294 C 248.874 117.346,238.670 117.436,245.600 117.494 M95.773 127.800 C 95.773 133.300,95.830 135.605,95.899 132.923 C 95.968 130.241,95.968 125.741,95.899 122.923 C 95.830 120.105,95.774 122.300,95.773 127.800 M232.589 128.000 L 232.600 138.200 239.900 138.214 L 247.201 138.228 240.007 138.105 L 232.814 137.982 232.696 127.891 L 232.579 117.800 232.589 128.000 M296.600 138.000 L 289.400 138.228 296.476 138.314 C 300.858 138.367,303.647 138.248,303.800 138.000 C 303.936 137.780,303.992 137.639,303.924 137.686 C 303.856 137.733,300.560 137.875,296.600 138.000 M99.280 138.298 C 101.194 138.371,104.434 138.371,106.480 138.298 C 108.526 138.226,106.960 138.166,103.000 138.165 C 99.040 138.165,97.366 138.224,99.280 138.298 M152.184 171.300 C 152.080 171.575,152.041 191.870,152.099 216.400 L 152.204 261.000 152.302 216.133 C 152.379 180.688,152.505 171.224,152.900 171.065 C 153.292 170.907,153.289 170.856,152.887 170.832 C 152.606 170.814,152.289 171.025,152.184 171.300 M318.586 272.200 C 318.586 283.640,318.637 288.262,318.700 282.472 C 318.762 276.682,318.762 267.322,318.700 261.672 C 318.637 256.022,318.586 260.760,318.586 272.200 M289.149 261.710 C 289.320 261.880,292.596 261.970,296.430 261.909 L 303.400 261.798 296.119 261.599 C 292.115 261.490,288.978 261.539,289.149 261.710 M95.780 262.107 C 95.673 262.386,95.637 267.111,95.700 272.607 L 95.815 282.600 95.907 272.309 L 96.000 262.018 103.500 261.899 L 111.000 261.781 103.487 261.691 C 97.722 261.621,95.930 261.718,95.780 262.107 M156.521 261.898 C 158.677 261.971,162.097 261.970,164.121 261.898 C 166.144 261.825,164.380 261.766,160.200 261.767 C 156.020 261.767,154.364 261.826,156.521 261.898 M106.931 293.500 C 120.753 293.558,143.253 293.558,156.931 293.500 C 170.609 293.442,159.300 293.394,131.800 293.394 C 104.300 293.394,93.109 293.442,106.931 293.500 M255.500 293.500 C 266.995 293.559,285.805 293.559,297.300 293.500 C 308.795 293.441,299.390 293.393,276.400 293.393 C 253.410 293.393,244.005 293.441,255.500 293.500 " stroke="none" fill="#44648c" fill-rule="evenodd"></path><path id="path4" d="M81.386 128.200 C 81.386 139.640,81.437 144.262,81.500 138.472 C 81.562 132.682,81.562 123.322,81.500 117.672 C 81.437 112.022,81.386 116.760,81.386 128.200 M218.186 128.200 C 218.186 139.640,218.237 144.262,218.300 138.472 C 218.362 132.682,218.362 123.322,218.300 117.672 C 218.237 112.022,218.186 116.760,218.186 128.200 M304.173 127.800 C 304.173 133.300,304.230 135.605,304.299 132.923 C 304.368 130.241,304.368 125.741,304.299 122.923 C 304.230 120.105,304.174 122.300,304.173 127.800 M85.280 149.098 C 87.194 149.171,90.434 149.171,92.480 149.098 C 94.526 149.026,92.960 148.966,89.000 148.965 C 85.040 148.965,83.366 149.024,85.280 149.098 M222.080 149.098 C 223.994 149.171,227.234 149.171,229.280 149.098 C 231.326 149.026,229.760 148.966,225.800 148.965 C 221.840 148.965,220.166 149.024,222.080 149.098 M307.280 149.098 C 309.194 149.171,312.434 149.171,314.480 149.098 C 316.526 149.026,314.960 148.966,311.000 148.965 C 307.040 148.965,305.366 149.024,307.280 149.098 M81.386 272.200 C 81.386 283.640,81.437 288.262,81.500 282.472 C 81.562 276.682,81.562 267.322,81.500 261.672 C 81.437 256.022,81.386 260.760,81.386 272.200 M303.999 272.119 L 304.199 282.600 304.307 272.427 C 304.366 266.832,304.276 262.116,304.107 261.946 C 303.938 261.777,303.890 266.355,303.999 272.119 M113.930 282.700 C 123.902 282.759,140.102 282.759,149.930 282.700 C 159.759 282.640,151.600 282.592,131.800 282.592 C 112.000 282.592,103.959 282.640,113.930 282.700 M259.100 282.700 C 267.295 282.760,280.705 282.760,288.900 282.700 C 297.095 282.639,290.390 282.590,274.000 282.590 C 257.610 282.590,250.905 282.639,259.100 282.700 " stroke="none" fill="#748cac" fill-rule="evenodd"></path><path id="path5" d="M110.995 199.800 C 110.995 233.460,111.042 247.171,111.100 230.269 C 111.158 213.366,111.158 185.826,111.100 169.069 C 111.042 152.311,110.995 166.140,110.995 199.800 M96.594 199.800 C 96.594 227.740,96.642 239.111,96.700 225.069 C 96.758 211.027,96.758 188.167,96.700 174.269 C 96.642 160.371,96.594 171.860,96.594 199.800 M233.386 170.200 C 233.386 181.860,233.437 186.572,233.500 180.672 C 233.562 174.771,233.562 165.231,233.500 159.472 C 233.437 153.712,233.386 158.540,233.386 170.200 M182.186 272.200 C 182.186 283.640,182.237 288.262,182.300 282.472 C 182.362 276.682,182.362 267.322,182.300 261.672 C 182.237 256.022,182.186 260.760,182.186 272.200 M102.500 395.100 C 156.125 395.156,243.875 395.156,297.500 395.100 C 351.125 395.044,307.250 394.998,200.000 394.998 C 92.750 394.998,48.875 395.044,102.500 395.100 " stroke="none" fill="#6484a4" fill-rule="evenodd"></path><path id="path6" d="M303.773 127.800 C 303.773 133.300,303.830 135.605,303.899 132.923 C 303.968 130.241,303.968 125.741,303.899 122.923 C 303.830 120.105,303.774 122.300,303.773 127.800 M288.595 199.800 C 288.595 233.460,288.642 247.171,288.700 230.269 C 288.758 213.366,288.758 185.826,288.700 169.069 C 288.642 152.311,288.595 166.140,288.595 199.800 M303.394 199.800 C 303.394 227.740,303.442 239.111,303.500 225.069 C 303.558 211.027,303.558 188.167,303.500 174.269 C 303.442 160.371,303.394 171.860,303.394 199.800 M85.280 250.698 C 87.194 250.771,90.434 250.771,92.480 250.698 C 94.526 250.626,92.960 250.566,89.000 250.565 C 85.040 250.565,83.366 250.624,85.280 250.698 M170.521 250.698 C 172.677 250.771,176.097 250.770,178.121 250.698 C 180.144 250.625,178.380 250.566,174.200 250.567 C 170.020 250.567,168.364 250.626,170.521 250.698 M307.280 250.698 C 309.194 250.771,312.434 250.771,314.480 250.698 C 316.526 250.626,314.960 250.566,311.000 250.565 C 307.040 250.565,305.366 250.624,307.280 250.698 M303.774 272.200 C 303.775 277.920,303.831 280.204,303.899 277.276 C 303.968 274.348,303.967 269.668,303.899 266.876 C 303.830 264.084,303.774 266.480,303.774 272.200 " stroke="none" fill="#345c84" fill-rule="evenodd"></path><path id="path7" d="M318.600 127.800 C 318.600 139.528,318.735 149.040,318.900 148.938 C 319.065 148.836,319.200 139.324,319.200 127.800 C 319.200 116.276,319.065 106.764,318.900 106.662 C 318.735 106.560,318.600 116.072,318.600 127.800 M98.400 137.874 C 104.763 138.162,111.110 138.175,110.939 137.900 C 110.837 137.735,107.388 137.635,103.276 137.678 C 99.164 137.721,96.970 137.810,98.400 137.874 M236.700 137.898 C 238.735 137.971,242.065 137.971,244.100 137.898 C 246.135 137.825,244.470 137.766,240.400 137.766 C 236.330 137.766,234.665 137.825,236.700 137.898 M288.661 137.900 C 288.558 138.065,290.663 138.153,293.337 138.095 C 302.456 137.899,303.409 137.757,296.124 137.678 C 292.122 137.635,288.763 137.735,288.661 137.900 M247.793 185.000 C 247.793 210.520,247.841 221.019,247.900 208.331 C 247.959 195.643,247.959 174.763,247.900 161.931 C 247.841 149.099,247.793 159.480,247.793 185.000 M288.195 199.800 C 288.195 233.460,288.242 247.171,288.300 230.269 C 288.358 213.366,288.358 185.826,288.300 169.069 C 288.242 152.311,288.195 166.140,288.195 199.800 M303.794 199.800 C 303.794 227.740,303.842 239.111,303.900 225.069 C 303.958 211.027,303.958 188.167,303.900 174.269 C 303.842 160.371,303.794 171.860,303.794 199.800 M318.896 271.820 C 318.836 285.181,318.652 293.218,318.401 293.521 C 318.179 293.790,318.270 293.773,318.605 293.484 C 319.130 293.031,319.193 290.238,319.100 271.782 L 318.993 250.600 318.896 271.820 M182.586 272.000 C 182.586 283.550,182.637 288.275,182.700 282.500 C 182.762 276.725,182.762 267.275,182.700 261.500 C 182.637 255.725,182.586 260.450,182.586 272.000 M102.500 394.700 C 156.125 394.756,243.875 394.756,297.500 394.700 C 351.125 394.644,307.250 394.598,200.000 394.598 C 92.750 394.598,48.875 394.644,102.500 394.700 " stroke="none" fill="#144474" fill-rule="evenodd"></path><path id="path8" d="M80.983 106.900 C 80.878 107.175,80.839 116.760,80.896 128.200 L 81.000 149.000 81.200 127.700 C 81.310 115.985,81.349 106.400,81.287 106.400 C 81.226 106.400,81.089 106.625,80.983 106.900 M217.783 106.900 C 217.678 107.175,217.639 116.760,217.696 128.200 L 217.800 149.000 218.000 127.700 C 218.110 115.985,218.149 106.400,218.087 106.400 C 218.026 106.400,217.889 106.625,217.783 106.900 M110.300 117.900 C 118.275 117.960,131.325 117.960,139.300 117.900 C 147.275 117.839,140.750 117.790,124.800 117.790 C 108.850 117.790,102.325 117.839,110.300 117.900 M232.980 118.108 C 232.873 118.387,232.837 122.932,232.900 128.208 L 233.015 137.800 233.108 127.902 L 233.200 118.004 268.500 117.900 L 303.800 117.796 268.487 117.698 C 240.242 117.620,233.136 117.702,232.980 118.108 M96.194 199.800 C 96.194 227.740,96.242 239.111,96.300 225.069 C 96.358 211.027,96.358 188.167,96.300 174.269 C 96.242 160.371,96.194 171.860,96.194 199.800 M232.986 169.800 C 232.986 181.240,233.037 185.862,233.100 180.072 C 233.162 174.282,233.162 164.922,233.100 159.272 C 233.037 153.622,232.986 158.360,232.986 169.800 M151.793 216.200 C 151.793 240.840,151.841 250.861,151.900 238.469 C 151.959 226.077,151.959 205.917,151.900 193.669 C 151.841 181.421,151.793 191.560,151.793 216.200 M166.585 231.000 C 166.585 241.780,166.637 246.133,166.700 240.672 C 166.763 235.212,166.763 226.392,166.700 221.072 C 166.637 215.753,166.585 220.220,166.585 231.000 M80.986 272.000 C 80.986 283.550,81.037 288.275,81.100 282.500 C 81.162 276.725,81.162 267.275,81.100 261.500 C 81.037 255.725,80.986 260.450,80.986 272.000 M318.162 293.198 C 317.904 293.456,303.099 293.633,276.182 293.700 L 234.600 293.804 276.251 293.902 C 312.867 293.988,317.962 293.927,318.400 293.400 C 318.957 292.729,318.780 292.580,318.162 293.198 M106.700 293.900 C 120.395 293.958,142.805 293.958,156.500 293.900 C 170.195 293.842,158.990 293.794,131.600 293.794 C 104.210 293.794,93.005 293.842,106.700 293.900 " stroke="none" fill="#244c7c" fill-rule="evenodd"></path></g></svg>
